<?xml version="1.0" encoding="utf-8"?>
<!-- Generator: Adobe Illustrator 26.1.0, SVG Export Plug-In . SVG Version: 6.00 Build 0)  -->
<svg version="1.1" id="Layer_1" xmlns="http://www.w3.org/2000/svg" xmlns:xlink="http://www.w3.org/1999/xlink" x="0px" y="0px"
	 viewBox="0 0 130 65" style="enable-background:new 0 0 130 65;" xml:space="preserve">
<style type="text/css">
	.st0{fill:none;}
	.st1{fill:#FFFFFF;}
	.st2{fill:#FFFFFF;filter:url(#Adobe_OpacityMaskFilter);}
	.st3{mask:url(#mask0_1235_3411_00000041291102539196125040000003065511514233736076_);}
	.st4{fill:#FDD901;}
	.st5{fill:#0068FF;}
</style>
<rect class="st0" width="130" height="65"/>
<path class="st1" d="M130,0H0v39h26v26h78V39h26V0z"/>
<path d="M21.8,13.1c-0.9,0.1-1.7,0.5-2.3,1.1c-0.6-0.7-1.4-1.1-2.3-1.1c-1-0.1-2.1,0.2-2.9,1c-1.4,1.3-1.6,3.5-0.5,5l5.7,7.5
	l5.7-7.5c1.2-1.5,1-3.7-0.5-5C23.9,13.3,22.9,13,21.8,13.1z M23.7,17.9l-4.2,5.6l-4.2-5.6c-0.6-0.8-0.5-1.9,0.2-2.5
	c0.4-0.3,0.8-0.5,1.3-0.5c0.1,0,0.1,0,0.2,0c0.5,0.1,1,0.3,1.4,0.8l1.2,1.6l1.2-1.6c0.3-0.4,0.8-0.7,1.4-0.8s1.1,0.1,1.5,0.5
	C24.2,16,24.3,17.1,23.7,17.9z"/>
<path d="M47.5,21.6v0.7c0,0.4-0.1,0.8-0.1,1.2c-0.1,0.4-0.2,0.7-0.5,1c-0.2,0.3-0.5,0.5-0.9,0.7c-0.4,0.2-0.9,0.3-1.5,0.3
	s-1.1-0.1-1.5-0.3c-0.4-0.2-0.7-0.4-0.9-0.7c-0.2-0.3-0.4-0.6-0.4-1c-0.1-0.4-0.1-0.8-0.1-1.2v-5.4c0-0.4,0.1-0.9,0.1-1.2
	c0.1-0.4,0.2-0.7,0.4-1s0.5-0.5,0.9-0.7s1-0.3,1.5-0.3c0.6,0,1.1,0.1,1.5,0.3s0.7,0.4,0.9,0.7c0.2,0.3,0.4,0.6,0.5,1
	c0.1,0.4,0.1,0.8,0.1,1.2v0.6h-1.9v-0.6c0-0.2,0-0.3,0-0.5c0-0.2-0.1-0.3-0.2-0.4s-0.2-0.2-0.3-0.3s-0.3-0.1-0.5-0.1
	c-0.2,0-0.4,0.1-0.6,0.1c-0.2,0.1-0.2,0.2-0.3,0.3s-0.1,0.3-0.2,0.5c0,0.2,0,0.4,0,0.6v5.4c0,0.2,0,0.4,0,0.5c0,0.2,0.1,0.3,0.1,0.5
	c0.1,0.1,0.2,0.3,0.3,0.3c0.1,0.1,0.3,0.1,0.6,0.1c0.2,0,0.4,0,0.5-0.1c0.1-0.1,0.2-0.2,0.3-0.3c0.1-0.1,0.1-0.3,0.2-0.4
	c0-0.2,0.1-0.3,0.1-0.5v-0.7L47.5,21.6z"/>
<path d="M52.7,13.6c0.6,0,1.1,0.1,1.5,0.3s0.7,0.4,0.9,0.7s0.4,0.7,0.4,1c0.1,0.4,0.1,0.8,0.1,1.2v5.4c0,0.4-0.1,0.9-0.1,1.2
	c-0.1,0.4-0.2,0.8-0.5,1c-0.2,0.3-0.5,0.5-0.9,0.7c-0.4,0.2-0.9,0.3-1.5,0.3s-1.1-0.1-1.5-0.3c-0.4-0.2-0.7-0.4-0.9-0.7
	c-0.2-0.3-0.4-0.6-0.5-1c-0.1-0.4-0.1-0.8-0.1-1.2v-5.4c0-0.4,0.1-0.9,0.1-1.2c0.1-0.4,0.2-0.7,0.5-1c0.2-0.3,0.5-0.5,0.9-0.7
	C51.6,13.7,52.1,13.6,52.7,13.6z M52.7,23.7c0.3,0,0.4-0.1,0.6-0.1c0.1-0.1,0.2-0.2,0.3-0.3c0.1-0.1,0.1-0.3,0.1-0.5
	c0-0.2,0-0.4,0-0.6v-5.4c0-0.2,0-0.4,0-0.5c0-0.2-0.1-0.3-0.1-0.5c-0.1-0.1-0.2-0.3-0.3-0.3c-0.1-0.1-0.3-0.1-0.6-0.1c0,0,0,0-0.1,0
	c-0.2,0-0.4,0.1-0.5,0.1c-0.1,0.1-0.2,0.2-0.3,0.3c-0.1,0.1-0.1,0.3-0.1,0.5c0,0.2,0,0.4,0,0.6v5.4c0,0.2,0,0.4,0,0.5
	c0,0.2,0.1,0.3,0.1,0.5c0.1,0.1,0.2,0.3,0.3,0.3C52.2,23.7,52.4,23.7,52.7,23.7z"/>
<path d="M60,16.7l0.1,8.6h-1.8V13.7h2.5l1.6,7l1.6-7h2.5v11.6h-1.8l0.1-8.5l-1.6,7.1h-1.7L60,16.7z"/>
<path d="M69.3,25.3V13.7h5.2v1.7h-3.3v3.1h2.7v1.7h-2.7v3.3h3.3v1.7L69.3,25.3z"/>
<path d="M86.9,22.3c0,0.5-0.1,1-0.2,1.4c-0.1,0.4-0.3,0.7-0.5,0.9c-0.3,0.2-0.5,0.4-0.9,0.5s-0.8,0.2-1.3,0.2h-3V13.7h2.9
	c0.5,0,0.9,0.1,1.3,0.2c0.4,0.1,0.7,0.3,0.9,0.5s0.4,0.5,0.5,0.8c0.1,0.3,0.2,0.7,0.2,1.1V17c0,0.6-0.1,1.1-0.3,1.4
	c-0.2,0.4-0.5,0.6-0.9,0.7c0.4,0.1,0.7,0.3,0.9,0.7c0.2,0.4,0.3,0.8,0.3,1.4V22.3z M84.8,16.5c0-0.2,0-0.3-0.1-0.5
	c0-0.1-0.1-0.3-0.2-0.4c-0.1-0.1-0.2-0.2-0.3-0.2c-0.1-0.1-0.3-0.1-0.5-0.1h-1v3h0.8c0.2,0,0.4,0,0.5-0.1c0.2-0.1,0.3-0.1,0.4-0.2
	c0.1-0.1,0.2-0.2,0.2-0.4c0-0.2,0.1-0.3,0.1-0.5V16.5z M85,21.2c0-0.2,0-0.3-0.1-0.4c-0.1-0.1-0.1-0.3-0.2-0.4
	c-0.1-0.1-0.2-0.2-0.3-0.2c-0.1-0.1-0.3-0.1-0.5-0.1h-1v3.5h1c0.2,0,0.3,0,0.5-0.1c0.1,0,0.3-0.1,0.3-0.2c0.1-0.1,0.2-0.2,0.2-0.4
	c0.1-0.2,0.1-0.4,0.1-0.6V21.2z"/>
<path d="M90.7,13.7h2.6l2.1,11.6h-1.9l-0.3-2.1h-2.3l-0.3,2.1h-1.9L90.7,13.7z M91.1,21.6h1.8L92,15.7L91.1,21.6z"/>
<path d="M103.3,21.6v0.7c0,0.4-0.1,0.8-0.1,1.2c-0.1,0.4-0.2,0.7-0.5,1c-0.2,0.3-0.5,0.5-0.9,0.7c-0.4,0.2-0.9,0.3-1.5,0.3
	s-1.1-0.1-1.5-0.3c-0.4-0.2-0.7-0.4-0.9-0.7s-0.4-0.6-0.4-1c-0.1-0.4-0.1-0.8-0.1-1.2v-5.4c0-0.4,0.1-0.9,0.1-1.2
	c0.1-0.4,0.2-0.7,0.4-1s0.5-0.5,0.9-0.7c0.4-0.2,0.9-0.3,1.5-0.3s1.1,0.1,1.5,0.3s0.7,0.4,0.9,0.7c0.2,0.3,0.4,0.6,0.5,1
	c0.1,0.4,0.1,0.8,0.1,1.2v0.6h-1.9v-0.6c0-0.2,0-0.3,0-0.5c0-0.2-0.1-0.3-0.2-0.4s-0.2-0.2-0.3-0.3c-0.1-0.1-0.3-0.1-0.5-0.1
	s-0.4,0.1-0.6,0.1s-0.2,0.2-0.3,0.3c-0.1,0.1-0.1,0.3-0.2,0.5c0,0.2,0,0.4,0,0.6v5.4c0,0.2,0,0.4,0,0.5c0,0.2,0.1,0.3,0.1,0.5
	c0.1,0.1,0.2,0.3,0.3,0.3c0.1,0.1,0.3,0.1,0.6,0.1c0.2,0,0.4,0,0.5-0.1c0.1-0.1,0.2-0.2,0.3-0.3c0.1-0.1,0.1-0.3,0.2-0.4
	s0.1-0.3,0.1-0.5v-0.7L103.3,21.6z"/>
<path d="M105.8,25.3V13.7h1.9v4.9h0.7l1.8-4.9h2.1l-2.1,5.7l2.2,5.9h-2.1l-1.9-5h-0.8v5H105.8z"/>
<path d="M43.7,39.8h2.6l2.1,11.6h-2l-0.3-2.1h-2.3l-0.3,2.1h-1.9L43.7,39.8z M44,47.7h1.8L45,41.8L44,47.7z"/>
<path d="M50.3,51.4V39.8h1.9v9.9h3.1v1.7H50.3z"/>
<path d="M57.4,51.4V39.8h1.9v11.6H57.4z"/>
<path d="M68.2,39.8L66,51.4h-2.6l-2.1-11.6h1.9l1.5,9.6l1.5-9.6H68.2z"/>
<path d="M69.8,51.4V39.8H75v1.7h-3.3v3.1h2.7v1.7h-2.7v3.3H75v1.7L69.8,51.4z"/>
<defs>
	<filter id="Adobe_OpacityMaskFilter" filterUnits="userSpaceOnUse" x="82.1" y="32" width="15.4" height="26">
		<feColorMatrix  type="matrix" values="1 0 0 0 0  0 1 0 0 0  0 0 1 0 0  0 0 0 1 0"/>
	</filter>
</defs>
<mask maskUnits="userSpaceOnUse" x="82.1" y="32" width="15.4" height="26" id="mask0_1235_3411_00000041291102539196125040000003065511514233736076_">
	<path class="st2" d="M96.6,33.4H83v24.2h13.6V33.4z"/>
</mask>
<g class="st3">
	<path class="st4" d="M97.5,32H82.1v26h15.4V32z"/>
	<path class="st5" d="M97.5,32.5H82.1v13h15.4V32.5z"/>
</g>
<path d="M5.6,5.6v27.8h26v26h66.8v-26h26V5.6H5.6z M31.6,31.6H7.4V7.4h24.2V31.6z M33.4,33.4h47.8v24.2H33.4V33.4z M96.6,57.6H83
	V33.4h13.6V57.6z M122.6,31.6H33.4V7.4h89.2V31.6z"/>
</svg>
